# xmcd
#
# Track frame offsets:
#	150
#	12077
#	24155
#	38430
#	50285
#	62097
#	72887
#	82902
#	95747
#	106672
#	119292
#	129310
#	139797
#	148550
#	164587
#	172380
#	181215
#	196085
#	205282
#	214500
#	226115
#	245087
#	255755
#	266100
#	278530
#
# Disc length: 3877 seconds
#
# Revision: 0
# Processed by: cddbd v1.5.1PL2 Copyright (c) Steve Scherf et al.
# Submitted via: dBpowerAMP V4.0
#
DISCID=500f2319
DTITLE=Sammy Price - Rib Joint
DYEAR=1979
DGENRE=R&B
TTITLE0=Rib Joint
TTITLE1=After Hour Swing
TTITLE2=Tishomingo
TTITLE3=Back Room Rock
TTITLE4=Rock My Soul
TTITLE5=Juke Joint
TTITLE6=Chicken Out
TTITLE7=Gulley Stomp
TTITLE8=Ain't No Strain
TTITLE9=Jive Joint
TTITLE10=Bar-B-Q-Sauce
TTITLE11=Rib Joint #2
TTITLE12=Roll 'Em Sam
TTITLE13=Sammy Sings The Blues
TTITLE14=Kansas City Boogie Woogie Stomp
TTITLE15=Levee
TTITLE16=Wee Hours
TTITLE17=Boogie Woogie Slop
TTITLE18=Chicken Strut
TTITLE19=Boogie Cha Cha
TTITLE20=New Orleans Blues
TTITLE21=The Saint's Boogie
TTITLE22=Blue Drag
TTITLE23=Honky Tonk Caboose
TTITLE24=Pack Up And Boogie
EXTD=Personnel tracks 1,4,6,9,11,12 -- Sam Price,Piano-King Curtis, Tenor Sax-Mickey Baker, Guitar-- Leonard Gaskin, Drums--Bobby Donaldson, Drums--Recorded 10/17/56 and 11/21/56\n\nPersonnel tracks 5,7,8,10-- Sam Price, Piano-King Curtis, Tenor Sax- Heyw
EXTD=ood Henry, Baritone Sax- Kenny Burrell, Guitar- Jimmy Lewis, Bass- Bobby Donaldson, Drums --Recorded 1/24/57\n\nPersonnel tracks 13 through 25- Sam Price, Piano- Mickey Baker, Al Casey, Guitars- Al Lucas, Bass- Panama Francis, Drums--Recorded 3/24/
EXTD=59\n\n1979 Arista Records -- Savoy Jazz ZDS 4417
EXTT0=
EXTT1=
EXTT2=
EXTT3=
EXTT4=
EXTT5=
EXTT6=
EXTT7=
EXTT8=
EXTT9=
EXTT10=
EXTT11=
EXTT12=
EXTT13=
EXTT14=
EXTT15=
EXTT16=
EXTT17=
EXTT18=
EXTT19=
EXTT20=
EXTT21=
EXTT22=
EXTT23=
EXTT24=
PLAYORDER=
